fd_10_states
version=1
nRows=39
nColumns=17
inDegrees=yes

# SIMM Motion File Header:
name fd_10_states
datacolumns 17
datarows 39
otherdata 1
range 0.030000 0.050075
endheader
time	/jointset/r_shoulder/r_shoulder_elev/value	/jointset/r_shoulder/r_shoulder_elev/speed	/jointset/r_elbow/r_elbow_flex/value	/jointset/r_elbow/r_elbow_flex/speed	/forceset/TRIlong/activation	/forceset/TRIlong/fiber_length	/forceset/TRIlat/activation	/forceset/TRIlat/fiber_length	/forceset/TRImed/activation	/forceset/TRImed/fiber_length	/forceset/BIClong/activation	/forceset/BIClong/fiber_length	/forceset/BICshort/activation	/forceset/BICshort/fiber_length	/forceset/BRA/activation	/forceset/BRA/fiber_length
      0.030000	      0.000000	      0.000000	     10.000004	     -0.308194	      0.020000	      0.140339	      0.036801	      0.073973	      0.034452	      0.069056	      0.071868	      0.145949	      0.022000	      0.145693	      0.020000	      0.090916
      0.030028	     -0.000000	     -0.000010	      9.999996	     -0.298694	      0.020930	      0.140339	      0.036796	      0.073973	      0.034448	      0.069056	      0.071849	      0.145949	      0.022000	      0.145693	      0.020178	      0.090916
      0.030077	     -0.000000	     -0.000031	      9.999982	     -0.282276	      0.022837	      0.140339	      0.036786	      0.073973	      0.034439	      0.069056	      0.071810	      0.145949	      0.022000	      0.145693	      0.020545	      0.090916
      0.030321	     -0.000000	     -0.000243	      9.999923	     -0.200337	      0.031974	      0.140332	      0.036736	      0.073973	      0.034398	      0.069056	      0.071618	      0.145950	      0.022000	      0.145693	      0.022324	      0.090915
      0.031541	     -0.000003	     -0.006401	      9.999920	      0.188768	      0.069713	      0.140226	      0.036489	      0.073973	      0.034191	      0.069056	      0.070672	      0.145952	      0.022000	      0.145693	      0.030000	      0.090900
      0.033135	     -0.000032	     -0.034428	     10.000564	      0.594389	      0.105420	      0.140027	      0.036172	      0.073974	      0.033926	      0.069057	      0.069465	      0.145956	      0.022000	      0.145693	      0.037595	      0.090868
      0.035316	     -0.000178	     -0.102317	     10.002197	      0.828201	      0.139399	      0.139760	      0.035751	      0.073976	      0.033573	      0.069059	      0.067865	      0.145963	      0.022000	      0.145693	      0.044875	      0.090826
      0.038286	     -0.000623	     -0.191093	     10.004091	      0.252791	      0.169590	      0.139463	      0.035197	      0.073980	      0.033110	      0.069062	      0.065778	      0.145975	      0.022000	      0.145693	      0.051095	      0.090781
      0.038807	     -0.000725	     -0.200839	     10.004166	      0.026585	      0.173603	      0.139420	      0.035103	      0.073980	      0.033031	      0.069063	      0.065424	      0.145977	      0.022000	      0.145693	      0.051883	      0.090774
      0.039087	     -0.000782	     -0.205074	     10.004154	     -0.111505	      0.175642	      0.139398	      0.035052	      0.073981	      0.032989	      0.069063	      0.065234	      0.145978	      0.022000	      0.145693	      0.052279	      0.090771
      0.039383	     -0.000843	     -0.208735	     10.004098	     -0.269802	      0.177709	      0.139375	      0.034999	      0.073981	      0.032944	      0.069064	      0.065034	      0.145979	      0.022000	      0.145693	      0.052676	      0.090768
      0.039568	     -0.000882	     -0.210582	     10.004038	     -0.374986	      0.178954	      0.139361	      0.034965	      0.073982	      0.032916	      0.069064	      0.064910	      0.145980	      0.022000	      0.145692	      0.052913	      0.090766
      0.039698	     -0.000910	     -0.211679	     10.003984	     -0.452181	      0.179813	      0.139351	      0.034942	      0.073982	      0.032897	      0.069064	      0.064822	      0.145981	      0.022000	      0.145692	      0.053076	      0.090764
      0.039799	     -0.000931	     -0.212410	     10.003936	     -0.513525	      0.180466	      0.139344	      0.034924	      0.073982	      0.032882	      0.069064	      0.064755	      0.145981	      0.022000	      0.145692	      0.053200	      0.090763
      0.039883	     -0.000949	     -0.212935	     10.003891	     -0.565331	      0.180999	      0.139338	      0.034909	      0.073982	      0.032869	      0.069064	      0.064699	      0.145982	      0.022000	      0.145692	      0.053300	      0.090762
      0.039980	     -0.000970	     -0.213460	     10.003832	     -0.627280	      0.181615	      0.139331	      0.034892	      0.073982	      0.032855	      0.069064	      0.064634	      0.145982	      0.022000	      0.145692	      0.053416	      0.090761
      0.039999	     -0.000974	     -0.213552	     10.003820	     -0.639635	      0.181735	      0.139330	      0.034888	      0.073982	      0.032852	      0.069064	      0.064621	      0.145982	      0.022000	      0.145692	      0.053439	      0.090761
      0.040003	     -0.000974	     -0.213567	     10.003818	     -0.641806	      0.181734	      0.139329	      0.034924	      0.073982	      0.032883	      0.069064	      0.064894	      0.145982	      0.022329	      0.145692	      0.053439	      0.090761
      0.040006	     -0.000975	     -0.213581	     10.003816	     -0.643982	      0.181724	      0.139329	      0.034996	      0.073982	      0.032947	      0.069064	      0.065421	      0.145982	      0.022945	      0.145692	      0.053437	      0.090761
      0.040023	     -0.000979	     -0.213629	     10.003805	     -0.654927	      0.181671	      0.139328	      0.035355	      0.073982	      0.033261	      0.069064	      0.068038	      0.145982	      0.026004	      0.145692	      0.053429	      0.090761
      0.040107	     -0.000997	     -0.213368	     10.003748	     -0.711195	      0.181409	      0.139322	      0.037128	      0.073982	      0.034818	      0.069064	      0.080774	      0.145982	      0.040791	      0.145689	      0.053388	      0.090760
      0.040493	     -0.001078	     -0.202600	     10.003419	     -0.997380	      0.180212	      0.139296	      0.044829	      0.073979	      0.041585	      0.069061	      0.132952	      0.145967	      0.099991	      0.145640	      0.053202	      0.090757
      0.040879	     -0.001151	     -0.177679	     10.002973	     -1.320897	      0.179026	      0.139273	      0.051885	      0.073970	      0.047796	      0.069053	      0.177434	      0.145934	      0.149161	      0.145559	      0.053016	      0.090754
      0.041472	     -0.001239	     -0.114444	     10.002029	     -1.872442	      0.177229	      0.139241	      0.061624	      0.073950	      0.056381	      0.069035	      0.235448	      0.145860	      0.212062	      0.145404	      0.052734	      0.090750
      0.042218	     -0.001283	      0.003674	     10.000351	     -2.631263	      0.175002	      0.139207	      0.072309	      0.073917	      0.065811	      0.069005	      0.296347	      0.145742	      0.277038	      0.145184	      0.052382	      0.090746
      0.043172	     -0.001188	      0.204631	      9.997362	     -3.638033	      0.172217	      0.139170	      0.083865	      0.073868	      0.076016	      0.068960	      0.360753	      0.145570	      0.344923	      0.144890	      0.051939	      0.090743
      0.044381	     -0.000760	      0.507888	      9.992224	     -4.830492	      0.168779	      0.139135	      0.095856	      0.073803	      0.086599	      0.068902	      0.427739	      0.145341	      0.414868	      0.144527	      0.051386	      0.090740
      0.045908	      0.000316	      0.895237	      9.983944	     -5.908750	      0.164581	      0.139102	      0.107774	      0.073724	      0.097098	      0.068832	      0.496411	      0.145058	      0.486055	      0.144114	      0.050703	      0.090739
      0.047829	      0.002413	      1.252492	      9.972182	     -6.069563	      0.159512	      0.139076	      0.119050	      0.073635	      0.106994	      0.068755	      0.565708	      0.144731	      0.557485	      0.143682	      0.049866	      0.090740
      0.049351	      0.004416	      1.347780	      9.963653	     -4.942243	      0.155657	      0.139065	      0.125830	      0.073574	      0.112914	      0.068703	      0.610956	      0.144501	      0.603952	      0.143406	      0.049221	      0.090742
      0.049574	      0.004715	      1.345844	      9.962583	     -4.677963	      0.155105	      0.139064	      0.126694	      0.073566	      0.113667	      0.068696	      0.617001	      0.144469	      0.610151	      0.143371	      0.049128	      0.090742
      0.049732	      0.004928	      1.342065	      9.961859	     -4.475008	      0.154715	      0.139063	      0.127290	      0.073561	      0.114186	      0.068691	      0.621217	      0.144447	      0.614473	      0.143346	      0.049062	      0.090742
      0.049869	      0.005112	      1.337270	      9.961258	     -4.289246	      0.154377	      0.139062	      0.127796	      0.073556	      0.114625	      0.068687	      0.624819	      0.144428	      0.618165	      0.143325	      0.049005	      0.090743
      0.049939	      0.005205	      1.334291	      9.960960	     -4.190611	      0.154205	      0.139062	      0.128050	      0.073553	      0.114847	      0.068685	      0.626645	      0.144418	      0.620037	      0.143314	      0.048975	      0.090743
      0.049988	      0.005270	      1.332033	      9.960759	     -4.121074	      0.154086	      0.139062	      0.128225	      0.073552	      0.114998	      0.068683	      0.627901	      0.144411	      0.621323	      0.143306	      0.048955	      0.090743
      0.050001	      0.005287	      1.331408	      9.960706	     -4.102495	      0.154059	      0.139062	      0.128269	      0.073551	      0.115038	      0.068683	      0.628213	      0.144409	      0.621643	      0.143305	      0.048950	      0.090743
      0.050009	      0.005298	      1.331006	      9.960673	     -4.090872	      0.154783	      0.139062	      0.128271	      0.073551	      0.115061	      0.068683	      0.628088	      0.144408	      0.621522	      0.143303	      0.048947	      0.090743
      0.050020	      0.005313	      1.330414	      9.960627	     -4.074557	      0.155992	      0.139062	      0.128269	      0.073551	      0.115093	      0.068683	      0.627844	      0.144407	      0.621282	      0.143302	      0.048942	      0.090743
      0.050075	      0.005387	      1.326924	      9.960403	     -3.991287	      0.161963	      0.139061	      0.128255	      0.073549	      0.115251	      0.068681	      0.626624	      0.144399	      0.620083	      0.143293	      0.048919	      0.090743
